<svg width="24" height="24" viewBox="0 0 24 24" fill="none" xmlns="http://www.w3.org/2000/svg">
<path d="M11.0304 4.71966C11.171 4.86034 11.25 5.05109 11.25 5.24998C11.25 5.44888 11.171 5.63963 11.0304 5.7803L5.56064 11.25L20.25 11.25C20.4489 11.25 20.6397 11.329 20.7803 11.4697C20.921 11.6103 21 11.8011 21 12C21 12.1989 20.921 12.3897 20.7803 12.5303C20.6397 12.671 20.4489 12.75 20.25 12.75L5.56064 12.75L11.0304 18.2197C11.1 18.2893 11.1553 18.372 11.1929 18.463C11.2306 18.554 11.25 18.6515 11.25 18.75C11.25 18.8485 11.2306 18.946 11.1929 19.037C11.1552 19.128 11.1 19.2107 11.0303 19.2803C10.9607 19.35 10.878 19.4052 10.787 19.4429C10.696 19.4806 10.5985 19.5 10.5 19.5C10.4015 19.5 10.3039 19.4806 10.213 19.4429C10.122 19.4052 10.0393 19.3499 9.96964 19.2803L3.21964 12.5303C3.21719 12.5279 3.21517 12.5252 3.21277 12.5227C3.19796 12.5075 3.18359 12.4919 3.17011 12.4755C3.16258 12.4664 3.15601 12.4566 3.14898 12.4472C3.14138 12.4371 3.13349 12.4271 3.12639 12.4165C3.11909 12.4056 3.11275 12.3943 3.10606 12.383C3.10022 12.3732 3.09407 12.3637 3.08864 12.3536C3.08262 12.3423 3.0775 12.3307 3.07207 12.3192C3.06701 12.3085 3.06168 12.2979 3.05713 12.287C3.05255 12.2759 3.04884 12.2646 3.04481 12.2533C3.04056 12.2415 3.03602 12.2298 3.03236 12.2177C3.02897 12.2065 3.02648 12.1951 3.02362 12.1837C3.02051 12.1714 3.01703 12.1591 3.01453 12.1465C3.01195 12.1334 3.01039 12.1202 3.00851 12.1071C3.00693 12.096 3.00483 12.0852 3.00373 12.074C3.00131 12.0494 3 12.0247 3 12C3 11.9753 3.00131 11.9506 3.00373 11.926C3.00483 11.9148 3.00694 11.9039 3.00851 11.8929C3.01039 11.8797 3.01195 11.8665 3.01453 11.8535C3.01703 11.8409 3.02051 11.8286 3.02362 11.8162C3.02648 11.8049 3.02897 11.7935 3.03236 11.7823C3.03602 11.7702 3.04056 11.7585 3.04481 11.7467C3.04884 11.7354 3.05255 11.724 3.05713 11.713C3.06168 11.702 3.06701 11.6915 3.07207 11.6808C3.0775 11.6693 3.08262 11.6577 3.08864 11.6464C3.09407 11.6363 3.10022 11.6267 3.10606 11.6169C3.11275 11.6057 3.11909 11.5944 3.12639 11.5835C3.13348 11.5729 3.14138 11.5629 3.14898 11.5527C3.15601 11.5433 3.16257 11.5336 3.17011 11.5245C3.18382 11.5077 3.19844 11.4919 3.21355 11.4764C3.21568 11.4742 3.21746 11.4718 3.21964 11.4697L9.96964 4.71966C10.0393 4.65001 10.122 4.59476 10.213 4.55707C10.304 4.51937 10.4015 4.49997 10.5 4.49997C10.5985 4.49997 10.696 4.51937 10.787 4.55707C10.878 4.59476 10.9607 4.65001 11.0304 4.71966Z" fill="white"/>
</svg>
