<svg width="8" height="7" viewBox="0 0 8 7" fill="none" xmlns="http://www.w3.org/2000/svg">
<g clip-path="url(#clip0_18329_1559)">
<path d="M2.55849 5.40023C2.5975 5.34373 2.62653 5.28568 2.67023 5.24198C4.18402 3.72601 5.69937 2.21097 7.21472 0.696241C7.26622 0.644741 7.31679 0.591056 7.37578 0.549232C7.53839 0.434371 7.75188 0.458717 7.88797 0.600732C8.02 0.73869 8.0381 0.943754 7.92698 1.102C7.8914 1.15256 7.84583 1.19657 7.80182 1.24058C6.16568 2.87735 4.52923 4.5138 2.89277 6.14994C2.63028 6.41244 2.43458 6.41306 2.17427 6.15338C1.51569 5.49543 0.857737 4.83716 0.199472 4.17858C0.162642 4.14175 0.124563 4.10586 0.0933508 4.06466C-0.0311858 3.89955 -0.0146434 3.68169 0.130181 3.53936C0.273757 3.39828 0.495676 3.38579 0.656418 3.51252C0.701052 3.54779 0.740379 3.58992 0.780955 3.6305C1.32561 4.17453 1.86964 4.71887 2.41429 5.26258C2.45018 5.29848 2.48795 5.33281 2.55849 5.40023Z" fill="white"/>
</g>
<defs>
<clipPath id="clip0_18329_1559">
<rect width="7.99001" height="5.87101" fill="white" transform="translate(0.00976562 0.476562)"/>
</clipPath>
</defs>
</svg>
