<svg width="18" height="18" viewBox="0 0 18 18" fill="none" xmlns="http://www.w3.org/2000/svg">
<g clip-path="url(#clip0_18363_1489)">
<path d="M3.04281 10.1577C2.33277 10.0474 1.67686 9.9391 1.01883 9.8456C0.0564064 9.70851 -0.271902 8.98792 0.265202 8.17172C0.805821 7.3506 1.35417 6.5344 1.88987 5.70976C2.18584 5.25421 2.58445 5.00815 3.1335 4.97511C3.88151 4.93012 4.62882 4.86825 5.37331 4.7867C5.53571 4.76913 5.72833 4.67422 5.83519 4.5526C7.56742 2.57853 9.62022 1.11275 12.2024 0.461052C13.6211 0.103217 15.0587 -0.0465248 16.5182 0.0125284C17.4068 0.0483822 17.9566 0.592516 17.9889 1.47761C18.145 5.75968 16.7361 9.37528 13.4271 12.1845C13.3188 12.2766 13.233 12.4454 13.2183 12.5874C13.1374 13.3677 13.0755 14.1495 13.0207 14.9319C12.9849 15.4402 12.7437 15.8149 12.3275 16.0898C11.4776 16.6508 10.6305 17.216 9.7777 17.7728C9.02407 18.2649 8.29504 17.9225 8.16147 17.0241C8.06164 16.3548 7.95689 15.6855 7.84441 14.9565C6.99587 15.1766 6.51641 14.6247 6.01024 14.1087C5.2306 13.315 4.44884 12.5227 3.64741 11.7501C3.19959 11.3177 2.89799 10.8495 3.04281 10.1577ZM10.196 13.0612C10.2234 13.0492 10.2782 13.0296 10.3282 13.0021C15.0468 10.4094 17.1087 6.43176 16.9372 1.54721C16.9253 1.20625 16.76 1.04526 16.4317 1.06846C15.3716 1.14298 14.2981 1.14649 13.2548 1.32365C10.0709 1.86497 7.70873 3.6907 5.86401 6.25601C5.50618 6.75374 5.21302 7.29858 4.91494 7.78085C6.70623 9.57213 8.44408 11.31 10.1953 13.0612H10.196ZM4.42072 8.95629C4.30684 9.42731 4.17045 9.90676 4.08749 10.3954C4.06359 10.5346 4.15709 10.7398 4.26395 10.8488C5.21302 11.819 6.17475 12.7772 7.14069 13.7298C7.23981 13.8275 7.40784 13.9421 7.52243 13.9224C8.03985 13.8331 8.54953 13.6981 9.04586 13.5835C7.48657 12.0235 5.96876 10.505 4.42072 8.95699V8.95629ZM9.21388 16.8786C10.1018 16.2901 10.9503 15.7312 11.7932 15.1646C11.8635 15.1175 11.9367 15.0219 11.9444 14.9425C12.0034 14.3808 12.0456 13.8176 12.0906 13.2918C11.0199 13.8001 9.96962 14.2985 8.8926 14.8103C8.99173 15.4493 9.09929 16.1404 9.21388 16.8793V16.8786ZM3.18904 9.10673C3.70716 8.01917 4.2063 6.97027 4.70755 5.91715C4.39963 5.93824 4.05375 5.98816 3.70927 5.98042C3.15459 5.96777 2.7588 6.15477 2.50571 6.67992C2.33488 7.03495 2.07547 7.34779 1.85613 7.67961C1.62062 8.03674 1.38581 8.39387 1.1264 8.78827C1.873 8.90356 2.56336 9.00972 3.18904 9.10603V9.10673Z" fill="white"/>
<path d="M4.43682 14.1152C4.32364 14.31 4.2688 14.4695 4.16194 14.5785C3.09336 15.6597 2.01845 16.734 0.939323 17.8046C0.684831 18.057 0.381832 18.0627 0.161788 17.8461C-0.0589589 17.6296 -0.0582558 17.3203 0.191315 17.0686C1.26974 15.981 2.34816 14.8928 3.44838 13.8277C3.57563 13.7047 3.85965 13.6597 4.04173 13.7033C4.19077 13.7384 4.29622 13.9592 4.43682 14.1152Z" fill="white"/>
<path d="M2.84965 12.5417C2.75052 12.723 2.70342 12.8756 2.605 12.9775C2.06016 13.5392 1.50548 14.0925 0.946583 14.6402C0.690686 14.8911 0.388389 14.8968 0.169048 14.6795C-0.0524015 14.4602 -0.0495894 14.1586 0.201387 13.902C0.749036 13.3431 1.29247 12.7779 1.87034 12.2513C2.00392 12.1297 2.28442 12.0826 2.4665 12.1276C2.61484 12.1641 2.71678 12.3891 2.84965 12.5417Z" fill="white"/>
<path d="M5.46147 15.1648C5.59997 15.273 5.81298 15.3581 5.86008 15.4987C5.91773 15.6702 5.91 15.9571 5.80173 16.0752C5.23299 16.6938 4.63121 17.283 4.02311 17.8629C3.80939 18.0668 3.54646 18.0352 3.32712 17.8334C3.11692 17.6401 3.09794 17.3315 3.31165 17.1107C3.88813 16.5146 4.47725 15.9303 5.0713 15.3518C5.15637 15.2688 5.29556 15.2414 5.46147 15.1641V15.1648Z" fill="white"/>
<path d="M9.69727 5.67135C9.69727 4.2147 10.8776 3.03223 12.3308 3.03223C13.7804 3.03223 14.9699 4.22243 14.9706 5.67205C14.9706 7.12518 13.7874 8.30414 12.3294 8.30343C10.8643 8.30273 9.69727 7.13573 9.69727 5.67135ZM12.3336 7.2468C13.2074 7.24469 13.9203 6.52832 13.9125 5.65939C13.9048 4.79258 13.1744 4.07761 12.309 4.09026C11.452 4.10292 10.7567 4.80734 10.7546 5.66642C10.7525 6.5466 11.4541 7.24891 12.3336 7.2468Z" fill="white"/>
</g>
<defs>
<clipPath id="clip0_18363_1489">
<rect width="18" height="18.0021" fill="white"/>
</clipPath>
</defs>
</svg>
